<?xml version="1.0"?>
<svg xmlns:rdf="http://www.w3.org/1999/02/22-rdf-syntax-ns#" xmlns="http://www.w3.org/2000/svg" xmlns:cc="http://creativecommons.org/ns#" xmlns:xlink="http://www.w3.org/1999/xlink" xmlns:dc="http://purl.org/dc/elements/1.1/" xmlns:svg="http://www.w3.org/2000/svg" id="svg2" viewBox="0 0 602.95 566.67" version="1.1">
  <defs id="defs4">
    <filter id="filter4053" width="2.1094" y="-.62622" x="-.55471" height="2.2524" color-interpolation-filters="sRGB">
      <feGaussianBlur id="feGaussianBlur4055" stdDeviation="83.598341"/>
    </filter>
    <filter id="filter4057" width="1.8037" y="-.46399" x="-.40187" height="1.928" color-interpolation-filters="sRGB">
      <feGaussianBlur id="feGaussianBlur4059" stdDeviation="83.598341"/>
    </filter>
    <filter id="filter4083" width="1.2155" y="-.026919" x="-.10776" height="1.0538" color-interpolation-filters="sRGB">
      <feGaussianBlur id="feGaussianBlur4085" stdDeviation="2.5417356"/>
    </filter>
    <radialGradient id="radialGradient4584" gradientUnits="userSpaceOnUse" cy="239.28" cx="-541.81" gradientTransform="matrix(1 0 0 .98640 0 3.2551)" r="8.9157">
      <stop id="stop3681" stop-color="#e2e7e4" offset="0"/>
      <stop id="stop3683" stop-color="#737373" offset="1"/>
    </radialGradient>
    <radialGradient id="radialGradient4586" gradientUnits="userSpaceOnUse" cy="388.79" cx="407.71" gradientTransform="matrix(1.7865 -6.1023e-8 4.5384e-8 .75680 -320.68 94.554)" r="511.99">
      <stop id="stop3621" stop-color="#fff" offset="0"/>
      <stop id="stop3623" stop-color="#d5d5d5" offset="1"/>
    </radialGradient>
    <radialGradient id="radialGradient4588" gradientUnits="userSpaceOnUse" cy="355.86" cx="241.43" gradientTransform="matrix(1 0 0 .93307 0 23.818)" r="128.29">
      <stop id="stop3655" stop-color="#a4a4a4" offset="0"/>
      <stop id="stop3657" stop-color="#7e7a6d" offset="1"/>
    </radialGradient>
    <radialGradient id="radialGradient4590" gradientUnits="userSpaceOnUse" cy="355.86" cx="241.43" gradientTransform="matrix(1 0 0 .93307 0 23.818)" r="128.29">
      <stop id="stop3637" stop-color="#fff" offset="0"/>
      <stop id="stop3639" stop-color="#dcdcd9" offset="1"/>
    </radialGradient>
  </defs>
  <g id="layer1" transform="translate(-87.608 -194.58)">
    <g id="g4410" transform="matrix(.41890 0 0 .41890 1088.5 133.38)">
      <g id="g3898" transform="matrix(1.3044 0 0 1.3044 -662.92 760.42)">
        <path id="path3900" stroke-linejoin="round" d="m-517.14 244.86c0 8.087-7.835 14.643-17.5 14.643s-17.5-6.5558-17.5-14.643c0-8.087 7.835-14.643 17.5-14.643s17.5 6.5558 17.5 14.643z" transform="translate(-5 2)" stroke="#e6e6e6" stroke-linecap="square" stroke-width=".2" fill="#b6adb2"/>
        <path id="path3902" stroke-linejoin="round" d="m-517.14 244.86c0 8.087-7.835 14.643-17.5 14.643s-17.5-6.5558-17.5-14.643c0-8.087 7.835-14.643 17.5-14.643s17.5 6.5558 17.5 14.643z" transform="translate(-5 -1.4286)" stroke="#e6e6e6" stroke-linecap="square" stroke-width=".2" fill="#fff"/>
        <path id="path3904" d="m-537.5 248.08-4.6862-3.4802-4.749 3.3939 0.67085-5.7984-5.3137-2.4158 5.357-2.3182-0.56467-5.8097 4.6862 3.4802 4.749-3.3939-0.67086 5.7984 5.3137 2.4158-5.357 2.3182 0.56466 5.8097z" fill="url(#radialGradient4584)" transform="matrix(1 -.039977 -.080307 1.0032 21.359 -19.921)"/>
        <path id="path3906" transform="matrix(.70916 -.028350 -.056951 .71144 -142.31 58.162)" fill="#f2f0f1" d="m-537.5 248.08-4.6686-5.4017-4.7666 5.3154 2.3437-6.744-6.9866-1.4703 7.0123-1.3422-2.22-6.7857 4.6686 5.4017 4.7666-5.3154-2.3437 6.744 6.9866 1.4703-7.0123 1.3423 2.22 6.7857z"/>
      </g>
      <path id="path4268" stroke="#000" stroke-width="1px" fill="#b3b3b3" d="m-1477.2 1411.6-24.904-20.882 29.233-27.483-4.3291 48.365z"/>
      <path id="path3775" stroke="#000" stroke-width="1px" d="m-2385 577.69 760.7 844.39 671.07-478.72-780.16-753.66-651.6 388z"/>
      <path id="path3665" stroke="#e6e6e6" transform="matrix(.77260 0 0 1.0237 -2112.7 317.6)" fill="#333" d="m919.7 388.79c0 174.76-229.23 316.43-511.99 316.43-282.77 0-511.99-141.67-511.99-316.43s229.23-316.43 511.99-316.43c282.77 0 511.99 141.67 511.99 316.43z"/>
      <path id="path3663" stroke="#e6e6e6" transform="matrix(.77260 0 0 1.0237 -2112.7 293.6)" fill="#4d4d4d" d="m919.7 388.79c0 174.76-229.23 316.43-511.99 316.43-282.77 0-511.99-141.67-511.99-316.43s229.23-316.43 511.99-316.43c282.77 0 511.99 141.67 511.99 316.43z"/>
      <path id="path3854" d="m-1671.4 995.93-23.571 20 70.714 47.143 0.7143-37.857-47.857-29.286z" fill="#c0bfc7"/>
      <path id="path3659" stroke="#e6e6e6" transform="matrix(.77260 0 0 1.0237 -2112.7 267.6)" fill="#4d4d4d" d="m919.7 388.79c0 174.76-229.23 316.43-511.99 316.43-282.77 0-511.99-141.67-511.99-316.43s229.23-316.43 511.99-316.43c282.77 0 511.99 141.67 511.99 316.43z"/>
      <path id="path4286" stroke="#916f6f" stroke-width="1px" fill="#2f1c15" d="m-1529.3 997.36s-3.554 36.072 10.714 36.429c14.268 0.3562 11.506-26.269 15.714-45 4.2078-18.731-4.1681-50.013 7.1429-67.143s22.661-23.719 48.571-27.143c25.91-3.4234 39.365 10.686 49.286 28.571 9.9206 17.886-2.1428 65.714-2.1428 65.714l-7.8572 40.714s9.5164-59.191-0.7143-75.714c-10.231-16.524-21.468-18.562-36.428-18.571-14.961-0.01-31.572 8.1635-43.572 22.143-12 13.979-19.286 58.571-19.286 58.571s2.0946 20.462-2.1428 29.286c-3.9385 8.2009-11.054 20.226-20 18.571-5.9646-1.1032 0.7142-66.429 0.7142-66.429z"/>
      <path id="path2830" transform="matrix(.77260 0 0 1.0237 -2112.7 247.6)" fill="#dfdbdc" d="m919.7 388.79c0 174.76-229.23 316.43-511.99 316.43-282.77 0-511.99-141.67-511.99-316.43s229.23-316.43 511.99-316.43c282.77 0 511.99 141.67 511.99 316.43z"/>
      <path id="path3629" transform="matrix(1.0413 0 0 .91350 -2049.2 329.53)" fill="#48423f" d="m369.72 355.86c0 66.11-57.437 119.7-128.29 119.7-70.852 0-128.29-53.593-128.29-119.7 0-66.11 57.437-119.7 128.29-119.7 70.852 0 128.29 53.593 128.29 119.7z"/>
      <path id="path4116" fill="#808080" d="m-1420.6 649.79s26.91 25.192 51.429 28.214c24.166 2.9788 28.4-8.7281 41.428-6.7857s12.862 4.0992 21.429 14.286c8.5671 10.186 3.0431 15.146-3.5714 20.714-6.6145 5.5681-24.67 16.569-53.571 17.857-29.258 1.3044-58.572-8.5714-58.572-8.5714l1.4286-65.714z"/>
      <path id="path4118" fill="#43464d" d="m-1420.6 643.79s26.91 25.192 51.429 28.214c24.166 2.9788 28.4-8.7281 41.428-6.7857s12.862 4.0992 21.429 14.286c8.5671 10.186 3.0431 15.146-3.5714 20.714-6.6145 5.5681-24.67 16.569-53.571 17.857-29.258 1.3044-58.572-8.5714-58.572-8.5714l1.4286-65.714z"/>
      <path id="path4110" fill="#808080" d="m-1420.6 637.79s26.91 25.192 51.429 28.214c24.166 2.9788 28.4-8.7281 41.428-6.7857s12.862 4.0992 21.429 14.286c8.5671 10.186 3.0431 15.146-3.5714 20.714-6.6145 5.5681-24.67 16.569-53.571 17.857-29.258 1.3044-58.572-8.5714-58.572-8.5714l1.4286-65.714z"/>
      <path id="path4112" fill="#43464d" d="m-1420.6 631.79s26.91 25.192 51.429 28.214c24.166 2.9788 28.4-8.7281 41.428-6.7857s12.862 4.0992 21.429 14.286c8.5671 10.186 3.0431 15.146-3.5714 20.714-6.6145 5.5681-24.67 16.569-53.571 17.857-29.258 1.3044-58.572-8.5714-58.572-8.5714l1.4286-65.714z"/>
      <path id="path4104" fill="#808080" d="m-1420.6 623.79s26.91 25.192 51.429 28.214c24.166 2.9788 28.4-8.7281 41.428-6.7857s12.862 4.0992 21.429 14.286c8.5671 10.186 3.0431 15.146-3.5714 20.714-6.6145 5.5681-24.67 16.569-53.571 17.857-29.258 1.3044-58.572-8.5714-58.572-8.5714l1.4286-65.714z"/>
      <path id="path4106" fill="#43464d" d="m-1420.6 617.79s26.91 25.192 51.429 28.214c24.166 2.9788 28.4-8.7281 41.428-6.7857s12.862 4.0992 21.429 14.286c8.5671 10.186 3.0431 15.146-3.5714 20.714-6.6145 5.5681-24.67 16.569-53.571 17.857-29.258 1.3044-58.572-8.5714-58.572-8.5714l1.4286-65.714z"/>
      <path id="path4096" fill="#808080" d="m-1418.6 609.79s26.91 25.192 51.429 28.214c24.166 2.9788 28.4-8.7281 41.428-6.7857s12.862 4.0992 21.429 14.286c8.5671 10.186 3.0431 15.146-3.5714 20.714-6.6145 5.5681-24.67 16.569-53.571 17.857-29.258 1.3044-58.572-8.5714-58.572-8.5714l1.4286-65.714z"/>
      <path id="path4094" fill="#43464d" d="m-1418.6 603.79s26.91 25.192 51.429 28.214c24.166 2.9788 28.4-8.7281 41.428-6.7857s12.862 4.0992 21.429 14.286c8.5671 10.186 3.0431 15.146-3.5714 20.714-6.6145 5.5681-24.67 16.569-53.571 17.857-29.258 1.3044-58.572-8.5714-58.572-8.5714l1.4286-65.714z"/>
      <path id="path4284" stroke="#666" stroke-width="1px" fill="#666" d="m-1411.9 1054.8s8.9699-51.687 2.1429-66.429-20.756-10.47-24.286-19.286c-3.6364-9.0826-4.4175-15.799 3.5714-25.714 8.3329-10.343 104.29-72.857 104.29-72.857s-10.469-24.256 6.0714-35.714c16.541-11.458 41.786 8.5714 41.786 8.5714l48.571 50.714s39.028 72.855 33.571 87.857c-5.5444 15.245-177.14 125-177.14 125l-38.571-52.143z"/>
      <path id="path3617" transform="matrix(.77260 0 0 1.0237 -2112.7 247.6)" fill="url(#radialGradient4586)" d="m919.7 388.79c0 174.76-229.23 316.43-511.99 316.43-282.77 0-511.99-141.67-511.99-316.43s229.23-316.43 511.99-316.43c282.77 0 511.99 141.67 511.99 316.43z"/>
      <path id="path3627" transform="matrix(1.0413 0 0 .91350 -2048.2 308.32)" fill="#dfdade" d="m369.72 355.86c0 66.11-57.437 119.7-128.29 119.7-70.852 0-128.29-53.593-128.29-119.7 0-66.11 57.437-119.7 128.29-119.7 70.852 0 128.29 53.593 128.29 119.7z"/>
      <path id="path3631" opacity=".50785" transform="matrix(.43307 0 0 .37975 -1901.6 497)" fill="url(#radialGradient4588)" d="m369.72 355.86c0 66.11-57.437 119.7-128.29 119.7-70.852 0-128.29-53.593-128.29-119.7 0-66.11 57.437-119.7 128.29-119.7 70.852 0 128.29 53.593 128.29 119.7z"/>
      <path id="path3633" opacity=".50785" transform="matrix(.34843 0 0 .30802 -1880.9 524.04)" fill="url(#radialGradient4590)" d="m369.72 355.86c0 66.11-57.437 119.7-128.29 119.7-70.852 0-128.29-53.593-128.29-119.7 0-66.11 57.437-119.7 128.29-119.7 70.852 0 128.29 53.593 128.29 119.7z"/>
      <g id="g3695" transform="translate(-1305.4 327.88)">
        <path id="path3693" stroke-linejoin="round" d="m-517.14 244.86c0 8.087-7.835 14.643-17.5 14.643s-17.5-6.5558-17.5-14.643c0-8.087 7.835-14.643 17.5-14.643s17.5 6.5558 17.5 14.643z" transform="translate(-5 2)" stroke="#e6e6e6" stroke-linecap="square" stroke-width=".2" fill="#b6adb2"/>
        <path id="path3667" stroke-linejoin="round" d="m-517.14 244.86c0 8.087-7.835 14.643-17.5 14.643s-17.5-6.5558-17.5-14.643c0-8.087 7.835-14.643 17.5-14.643s17.5 6.5558 17.5 14.643z" transform="translate(-5 -1.4286)" stroke="#e6e6e6" stroke-linecap="square" stroke-width=".2" fill="#fff"/>
        <path id="path3669" d="m-537.5 248.08-4.6862-3.4802-4.749 3.3939 0.67085-5.7984-5.3137-2.4158 5.357-2.3182-0.56467-5.8097 4.6862 3.4802 4.749-3.3939-0.67086 5.7984 5.3137 2.4158-5.357 2.3182 0.56466 5.8097z" fill="url(#radialGradient4584)" transform="matrix(1 -.039977 -.080307 1.0032 21.359 -19.921)"/>
        <path id="path3687" transform="matrix(.70916 -.028350 -.056951 .71144 -142.31 58.162)" fill="#f2f0f1" d="m-537.5 248.08-4.6686-5.4017-4.7666 5.3154 2.3437-6.744-6.9866-1.4703 7.0123-1.3422-2.22-6.7857 4.6686 5.4017 4.7666-5.3154-2.3437 6.744 6.9866 1.4703-7.0123 1.3423 2.22 6.7857z"/>
      </g>
      <g id="g3703" transform="translate(-1205.4 447.88)">
        <path id="path3705" stroke-linejoin="round" d="m-517.14 244.86c0 8.087-7.835 14.643-17.5 14.643s-17.5-6.5558-17.5-14.643c0-8.087 7.835-14.643 17.5-14.643s17.5 6.5558 17.5 14.643z" transform="translate(-5 2)" stroke="#e6e6e6" stroke-linecap="square" stroke-width=".2" fill="#b6adb2"/>
        <path id="path3707" stroke-linejoin="round" d="m-517.14 244.86c0 8.087-7.835 14.643-17.5 14.643s-17.5-6.5558-17.5-14.643c0-8.087 7.835-14.643 17.5-14.643s17.5 6.5558 17.5 14.643z" transform="translate(-5 -1.4286)" stroke="#e6e6e6" stroke-linecap="square" stroke-width=".2" fill="#fff"/>
        <path id="path3709" transform="matrix(1 -.039977 -.080307 1.0032 21.359 -19.921)" fill="url(#radialGradient4584)" d="m-537.5 248.08-4.6862-3.4802-4.749 3.3939 0.67085-5.7984-5.3137-2.4158 5.357-2.3182-0.56467-5.8097 4.6862 3.4802 4.749-3.3939-0.67086 5.7984 5.3137 2.4158-5.357 2.3182 0.56466 5.8097z"/>
        <path id="path3711" d="m-537.5 248.08-4.6686-5.4017-4.7666 5.3154 2.3437-6.744-6.9866-1.4703 7.0123-1.3422-2.22-6.7857 4.6686 5.4017 4.7666-5.3154-2.3437 6.744 6.9866 1.4703-7.0123 1.3423 2.22 6.7857z" fill="#f2f0f1" transform="matrix(.70916 -.028350 -.056951 .71144 -142.31 58.162)"/>
      </g>
      <g id="g3713" transform="translate(-1294 453.6)">
        <path id="path3715" stroke-linejoin="round" d="m-517.14 244.86c0 8.087-7.835 14.643-17.5 14.643s-17.5-6.5558-17.5-14.643c0-8.087 7.835-14.643 17.5-14.643s17.5 6.5558 17.5 14.643z" transform="translate(-5 2)" stroke="#e6e6e6" stroke-linecap="square" stroke-width=".2" fill="#b6adb2"/>
        <path id="path3717" stroke-linejoin="round" d="m-517.14 244.86c0 8.087-7.835 14.643-17.5 14.643s-17.5-6.5558-17.5-14.643c0-8.087 7.835-14.643 17.5-14.643s17.5 6.5558 17.5 14.643z" transform="translate(-5 -1.4286)" stroke="#e6e6e6" stroke-linecap="square" stroke-width=".2" fill="#fff"/>
        <path id="path3719" d="m-537.5 248.08-4.6862-3.4802-4.749 3.3939 0.67085-5.7984-5.3137-2.4158 5.357-2.3182-0.56467-5.8097 4.6862 3.4802 4.749-3.3939-0.67086 5.7984 5.3137 2.4158-5.357 2.3182 0.56466 5.8097z" fill="url(#radialGradient4584)" transform="matrix(1 -.039977 -.080307 1.0032 21.359 -19.921)"/>
        <path id="path3721" transform="matrix(.70916 -.028350 -.056951 .71144 -142.31 58.162)" fill="#f2f0f1" d="m-537.5 248.08-4.6686-5.4017-4.7666 5.3154 2.3437-6.744-6.9866-1.4703 7.0123-1.3422-2.22-6.7857 4.6686 5.4017 4.7666-5.3154-2.3437 6.744 6.9866 1.4703-7.0123 1.3423 2.22 6.7857z"/>
      </g>
      <g id="g3723" transform="translate(-1164 389.31)">
        <path id="path3725" stroke-linejoin="round" d="m-517.14 244.86c0 8.087-7.835 14.643-17.5 14.643s-17.5-6.5558-17.5-14.643c0-8.087 7.835-14.643 17.5-14.643s17.5 6.5558 17.5 14.643z" transform="translate(-5 2)" stroke="#e6e6e6" stroke-linecap="square" stroke-width=".2" fill="#b6adb2"/>
        <path id="path3727" stroke-linejoin="round" d="m-517.14 244.86c0 8.087-7.835 14.643-17.5 14.643s-17.5-6.5558-17.5-14.643c0-8.087 7.835-14.643 17.5-14.643s17.5 6.5558 17.5 14.643z" transform="translate(-5 -1.4286)" stroke="#e6e6e6" stroke-linecap="square" stroke-width=".2" fill="#fff"/>
        <path id="path3729" transform="matrix(1 -.039977 -.080307 1.0032 21.359 -19.921)" fill="url(#radialGradient4584)" d="m-537.5 248.08-4.6862-3.4802-4.749 3.3939 0.67085-5.7984-5.3137-2.4158 5.357-2.3182-0.56467-5.8097 4.6862 3.4802 4.749-3.3939-0.67086 5.7984 5.3137 2.4158-5.357 2.3182 0.56466 5.8097z"/>
        <path id="path3731" d="m-537.5 248.08-4.6686-5.4017-4.7666 5.3154 2.3437-6.744-6.9866-1.4703 7.0123-1.3422-2.22-6.7857 4.6686 5.4017 4.7666-5.3154-2.3437 6.744 6.9866 1.4703-7.0123 1.3423 2.22 6.7857z" fill="#f2f0f1" transform="matrix(.70916 -.028350 -.056951 .71144 -142.31 58.162)"/>
      </g>
      <g id="g3733" transform="translate(-1345.4 390.74)">
        <path id="path3735" stroke-linejoin="round" d="m-517.14 244.86c0 8.087-7.835 14.643-17.5 14.643s-17.5-6.5558-17.5-14.643c0-8.087 7.835-14.643 17.5-14.643s17.5 6.5558 17.5 14.643z" transform="translate(-5 2)" stroke="#e6e6e6" stroke-linecap="square" stroke-width=".2" fill="#b6adb2"/>
        <path id="path3737" stroke-linejoin="round" d="m-517.14 244.86c0 8.087-7.835 14.643-17.5 14.643s-17.5-6.5558-17.5-14.643c0-8.087 7.835-14.643 17.5-14.643s17.5 6.5558 17.5 14.643z" transform="translate(-5 -1.4286)" stroke="#e6e6e6" stroke-linecap="square" stroke-width=".2" fill="#fff"/>
        <path id="path3739" d="m-537.5 248.08-4.6862-3.4802-4.749 3.3939 0.67085-5.7984-5.3137-2.4158 5.357-2.3182-0.56467-5.8097 4.6862 3.4802 4.749-3.3939-0.67086 5.7984 5.3137 2.4158-5.357 2.3182 0.56466 5.8097z" fill="url(#radialGradient4584)" transform="matrix(1 -.039977 -.080307 1.0032 21.359 -19.921)"/>
        <path id="path3741" transform="matrix(.70916 -.028350 -.056951 .71144 -142.31 58.162)" fill="#f2f0f1" d="m-537.5 248.08-4.6686-5.4017-4.7666 5.3154 2.3437-6.744-6.9866-1.4703 7.0123-1.3422-2.22-6.7857 4.6686 5.4017 4.7666-5.3154-2.3437 6.744 6.9866 1.4703-7.0123 1.3423 2.22 6.7857z"/>
      </g>
      <g id="g3743" transform="translate(-1211.1 326.46)">
        <path id="path3745" stroke-linejoin="round" d="m-517.14 244.86c0 8.087-7.835 14.643-17.5 14.643s-17.5-6.5558-17.5-14.643c0-8.087 7.835-14.643 17.5-14.643s17.5 6.5558 17.5 14.643z" transform="translate(-5 2)" stroke="#e6e6e6" stroke-linecap="square" stroke-width=".2" fill="#b6adb2"/>
        <path id="path3747" stroke-linejoin="round" d="m-517.14 244.86c0 8.087-7.835 14.643-17.5 14.643s-17.5-6.5558-17.5-14.643c0-8.087 7.835-14.643 17.5-14.643s17.5 6.5558 17.5 14.643z" transform="translate(-5 -1.4286)" stroke="#e6e6e6" stroke-linecap="square" stroke-width=".2" fill="#fff"/>
        <path id="path3749" transform="matrix(1 -.039977 -.080307 1.0032 21.359 -19.921)" fill="url(#radialGradient4584)" d="m-537.5 248.08-4.6862-3.4802-4.749 3.3939 0.67085-5.7984-5.3137-2.4158 5.357-2.3182-0.56467-5.8097 4.6862 3.4802 4.749-3.3939-0.67086 5.7984 5.3137 2.4158-5.357 2.3182 0.56466 5.8097z"/>
        <path id="path3751" d="m-537.5 248.08-4.6686-5.4017-4.7666 5.3154 2.3437-6.744-6.9866-1.4703 7.0123-1.3422-2.22-6.7857 4.6686 5.4017 4.7666-5.3154-2.3437 6.744 6.9866 1.4703-7.0123 1.3423 2.22 6.7857z" fill="#f2f0f1" transform="matrix(.70916 -.028350 -.056951 .71144 -142.31 58.162)"/>
      </g>
      <g id="g3763" transform="translate(-1258.2 387.88)">
        <path id="path3765" stroke-linejoin="round" d="m-517.14 244.86c0 8.087-7.835 14.643-17.5 14.643s-17.5-6.5558-17.5-14.643c0-8.087 7.835-14.643 17.5-14.643s17.5 6.5558 17.5 14.643z" transform="translate(-5 2)" stroke="#e6e6e6" stroke-linecap="square" stroke-width=".2" fill="#b6adb2"/>
        <path id="path3767" stroke-linejoin="round" d="m-517.14 244.86c0 8.087-7.835 14.643-17.5 14.643s-17.5-6.5558-17.5-14.643c0-8.087 7.835-14.643 17.5-14.643s17.5 6.5558 17.5 14.643z" transform="translate(-5 -1.4286)" stroke="#e6e6e6" stroke-linecap="square" stroke-width=".2" fill="#fff"/>
        <path id="path3769" transform="matrix(1 -.039977 -.080307 1.0032 21.359 -19.921)" fill="url(#radialGradient4584)" d="m-537.5 248.08-4.6862-3.4802-4.749 3.3939 0.67085-5.7984-5.3137-2.4158 5.357-2.3182-0.56467-5.8097 4.6862 3.4802 4.749-3.3939-0.67086 5.7984 5.3137 2.4158-5.357 2.3182 0.56466 5.8097z"/>
        <path id="path3771" d="m-537.5 248.08-4.6686-5.4017-4.7666 5.3154 2.3437-6.744-6.9866-1.4703 7.0123-1.3422-2.22-6.7857 4.6686 5.4017 4.7666-5.3154-2.3437 6.744 6.9866 1.4703-7.0123 1.3423 2.22 6.7857z" fill="#f2f0f1" transform="matrix(.70916 -.028350 -.056951 .71144 -142.31 58.162)"/>
      </g>
      <path id="path3779" fill="#676266" d="m-1629 1415.4-3.4489 81.057 668.72-486.55 11.112-66.67-676.38 472.16z"/>
      <path id="path3858" fill="#c0bfc7" d="m-1603.6 1028.1-1.4285 35.357 70-43.928-2.1429-29.286-36.755 37.467-29.674 0.3902z"/>
      <path id="path3856" d="m-1623.9 1026.3-1.0714 36.071 21.786 2.1429 1.4285-35.357-22.143-2.8571z" fill="#727179"/>
      <path id="path3894" stroke-linejoin="round" d="m-2398.9 54.148c0 23.669-23.825 42.857-53.214 42.857-29.39 0-53.214-19.188-53.214-42.857s23.825-42.857 53.214-42.857 53.214 19.188 53.214 42.857z" transform="matrix(.99995 0 0 1.0499 848.46 926.58)" stroke="#000" stroke-linecap="square" stroke-width=".2" fill="#4d4d4d"/>
      <path id="path3896" stroke-linejoin="round" d="m-2398.9 54.148c0 23.669-23.825 42.857-53.214 42.857-29.39 0-53.214-19.188-53.214-42.857s23.825-42.857 53.214-42.857 53.214 19.188 53.214 42.857z" transform="matrix(.82917 0 0 .84205 425.56 945.7)" stroke="#000" stroke-linecap="square" stroke-width=".2" fill="#808080"/>
      <path id="path3862" d="m-1590.7 1073.8-11.429-13.572 67.5-41.428-1.7857 45.357-54.286 9.6429z" fill="#a9adb3"/>
      <path id="path3860" d="m-1702.9 1026.3 8.5714-10 60 39.286-20.357 14.286-48.214-43.571z" fill="#a9adb3"/>
      <path id="path3852" fill="#a79d9b" d="m-1760.7 1168.8-62.857-72.857s-32.845 13.704-47.143-7.1428 11.428-44.286 11.428-44.286l-3.5714-27.857v-20.357l109.64-12.857s4.1814 15.16 13.928 22.5c9.5729 7.2093 30 2.8572 30 2.8572l30 38.571 42.857 8.5714 82.857 8.5715 22.593-10.404 13.479-14.239s12.064-16.937 17.5-21.786c13.214-11.786 36.786-15.714 36.786-15.714l80 80.357s-17.648 9.4195-22.5 17.5c-4.8516 8.0806-7.8571 28.214-7.8571 28.214l-154.29 46.072s-12.111 7.7623-7.8571 17.143c4.2541 9.3805 22.5 8.5714 22.5 8.5714l18.928 10c1.3096-8.7627 6.5477 0.2381 7.5001-5 0 0 50.534-15.336 56.786-13.928 6.2513 1.4072 28.929 27.5 28.929 27.5l-3.2143 11.428-56.429 37.143-4.2857 4.2857s-5.6674-3.928-11.435-4.0056c-5.768-0.078-16.779 8.6485-16.779 8.6485l-191.43-17.143s-54.048-51.168-53.571-58.929c0.4762-7.7608 21.786-21.428 21.786-21.428l-4.2857-10z"/>
      <g id="g3864" transform="matrix(1.5073 0 0 1.5073 -671.27 854.01)">
        <path id="path3866" stroke-linejoin="round" d="m-517.14 244.86c0 8.087-7.835 14.643-17.5 14.643s-17.5-6.5558-17.5-14.643c0-8.087 7.835-14.643 17.5-14.643s17.5 6.5558 17.5 14.643z" transform="translate(-5 2)" stroke="#e6e6e6" stroke-linecap="square" stroke-width=".2" fill="#b6adb2"/>
        <path id="path3868" stroke-linejoin="round" d="m-517.14 244.86c0 8.087-7.835 14.643-17.5 14.643s-17.5-6.5558-17.5-14.643c0-8.087 7.835-14.643 17.5-14.643s17.5 6.5558 17.5 14.643z" transform="translate(-5 -1.4286)" stroke="#e6e6e6" stroke-linecap="square" stroke-width=".2" fill="#fff"/>
        <path id="path3870" transform="matrix(1 -.039977 -.080307 1.0032 21.359 -19.921)" fill="url(#radialGradient4584)" d="m-537.5 248.08-4.6862-3.4802-4.749 3.3939 0.67085-5.7984-5.3137-2.4158 5.357-2.3182-0.56467-5.8097 4.6862 3.4802 4.749-3.3939-0.67086 5.7984 5.3137 2.4158-5.357 2.3182 0.56466 5.8097z"/>
        <path id="path3872" d="m-537.5 248.08-4.6686-5.4017-4.7666 5.3154 2.3437-6.744-6.9866-1.4703 7.0123-1.3422-2.22-6.7857 4.6686 5.4017 4.7666-5.3154-2.3437 6.744 6.9866 1.4703-7.0123 1.3423 2.22 6.7857z" fill="#f2f0f1" transform="matrix(.70916 -.028350 -.056951 .71144 -142.31 58.162)"/>
      </g>
      <path id="path3876" opacity=".5" stroke-linejoin="round" d="m-2565.6 210.22c0 3.5504-4.657 6.4286-10.402 6.4286-5.7446 0-10.402-2.8782-10.402-6.4286s4.657-6.4286 10.402-6.4286c5.7447 0 10.402 2.8782 10.402 6.4286z" transform="matrix(.79435 0 0 1.1672 312.37 897.34)" stroke="#000" stroke-linecap="square" stroke-width=".2" fill="#4d4d4d"/>
      <path id="path3777" d="m-2386 577.59 18.183 96.975 735.39 824.28 4.0406-80.812-757.61-840.45z" fill="#848081"/>
      <path id="path3878" opacity=".5" stroke-linejoin="round" d="m-2565.6 210.22c0 3.5504-4.657 6.4286-10.402 6.4286-5.7446 0-10.402-2.8782-10.402-6.4286s4.657-6.4286 10.402-6.4286c5.7447 0 10.402 2.8782 10.402 6.4286z" transform="matrix(.98099 0 0 1.4415 682.98 774.33)" stroke="#000" stroke-linecap="square" stroke-width=".2" fill="#4d4d4d"/>
      <path id="path3880" opacity=".5" stroke-linejoin="round" d="m-2565.6 210.22c0 3.5504-4.657 6.4286-10.402 6.4286-5.7446 0-10.402-2.8782-10.402-6.4286s4.657-6.4286 10.402-6.4286c5.7447 0 10.402 2.8782 10.402 6.4286z" transform="matrix(.79435 0 0 1.1672 234.51 806.63)" stroke="#000" stroke-linecap="square" stroke-width=".2" fill="#4d4d4d"/>
      <path id="path3882" opacity=".5" stroke-linejoin="round" d="m-2565.6 210.22c0 3.5504-4.657 6.4286-10.402 6.4286-5.7446 0-10.402-2.8782-10.402-6.4286s4.657-6.4286 10.402-6.4286c5.7447 0 10.402 2.8782 10.402 6.4286z" transform="matrix(.65859 0 0 .96775 -73.062 845.84)" stroke="#000" stroke-linecap="square" stroke-width=".2" fill="#4d4d4d"/>
      <path id="path3884" opacity=".5" stroke-linejoin="round" d="m-2565.6 210.22c0 3.5504-4.657 6.4286-10.402 6.4286-5.7446 0-10.402-2.8782-10.402-6.4286s4.657-6.4286 10.402-6.4286c5.7447 0 10.402 2.8782 10.402 6.4286z" transform="matrix(.93349 0 0 1.3717 968 824.98)" stroke="#000" stroke-linecap="square" stroke-width=".2" fill="#4d4d4d"/>
      <path id="path3886" opacity=".5" stroke-linejoin="round" d="m-1607.9 964.49c-3.1568 0-6.1687 0.50584-8.9687 1.4375l7.5625 10.188c0.7031-0.0879 1.4235-0.15625 2.1562-0.15625 7.8749 0 14.25 5.256 14.25 11.75 0 2.5608-1.0023 4.944-2.6874 6.875l6.9374 9.375c4.2219-4.1912 6.7813-9.7551 6.7813-15.875 0-13.024-11.648-23.594-26.031-23.594zm-18.781 7.25c-4.4933 4.2374-7.25 10.005-7.25 16.344 0 13.024 11.648 23.562 26.031 23.562 3.924 0 7.6317-0.7802 10.969-2.1875l-8-10.125c-0.7227 0.0931-1.4643 0.15625-2.2188 0.15625-7.8746 0-14.25-5.2872-14.25-11.781 0-2.3595 0.8616-4.5336 2.3126-6.375l-7.5938-9.5938z" stroke="#000" stroke-linecap="square" stroke-width=".18033" fill="#d1cdce"/>
      <g id="g4069" filter="url(#filter4083)" fill="#b3b3b3">
        <path id="path4061" d="m-1592.9 721.65c0-3.7877-0.2259-0.52507 0.7142-4.2857 0.2932-1.1728-0.7621-0.66646 0.7143-2.1428 0.1684-0.16836 0.546 0.16835 0.7143 0 0.3765-0.37647 0.2713-1.1333 0.7143-1.4286 0.3962-0.26414 0.9864 0.17686 1.4286 0 0.797-0.31882 1.4067-0.98689 2.1428-1.4286 0.4566-0.27391 0.9856-0.41896 1.4286-0.71428 0.2802-0.18678 0.4131-0.5637 0.7143-0.71429 0.2129-0.10648 0.5013 0.10648 0.7143 0 0.3011-0.15058 0.4131-0.5637 0.7143-0.71428 0.2129-0.10648 0.4833 0.0577 0.7142 0 0.7305-0.18262 1.4046-0.56663 2.1429-0.71429 0.9339-0.18678 1.9048 0 2.8571 0h12.143c0.2381 0 0.5013-0.10648 0.7143 0 0.3012 0.15058 0.4762 0.47619 0.7143 0.71429 0.4762 0.47619 1.1784 0.8033 1.4285 1.4286 0.2653 0.66319-0.1174 1.4383 0 2.1428 0.1238 0.74268 0.5075 1.4189 0.7143 2.1429 0.2697 0.94392 0.5529 1.8888 0.7143 2.8571 0.1624 0.9743 0 2.5254 0 3.5714 0 0.71429 0.2653 1.4797 0 2.1429-0.3188 0.79706-0.8215 1.5358-1.4286 2.1429-0.018 0.0178-3.303 0-3.5714 0h-3.5714c-0.4762 0-0.9768 0.15058-1.4286 0-1.9171-0.63906-1.196-0.81394-2.8571-2.1429-0.6704-0.53628-1.4561-0.91349-2.1429-1.4286-0.2694-0.20203-0.4341-0.52751-0.7143-0.71429-1.4729-0.98193-4.057-1.9357-5.7143-2.1428-0.945-0.11813-1.9047 0-2.8571 0-0.4762 0-0.9864-0.17686-1.4286 0-0.797 0.31882-1.4285 0.95238-2.1428 1.4286-1.4286 0.95238-2.8572 1.9048-4.2857 0z"/>
        <path id="path4063" d="m-1602.1 815.93c0.6112-3.3139-1.5358-0.82154-2.1428-1.4286-1.3528-1.3528-0.8763-5.7409 0-7.1429 0.8923-1.4277 2.3809-2.381 3.5714-3.5714 0.2381-0.23809 0.4131-0.5637 0.7143-0.71428 0.213-0.10648 0.6078 0.21296 0.7143 0 0.2129-0.42592-0.1506-0.97682 0-1.4286 0.1065-0.31944 0.6078-0.39485 0.7143-0.71429 0.1506-0.45175 0-0.95238 0-1.4286v-7.8572c0-0.47619-0.1155-0.9666 0-1.4286 0.1243-0.49714 0.8062-1.8317 1.4285-2.1429 0.213-0.10648 0.546 0.16836 0.7143 0 2.0113-0.0443 0.1819-1.6105 0.7143-2.1429 0.607-0.60703 1.4286-0.95238 2.1429-1.4286 0.7143-0.47619 1.375-1.0446 2.1428-1.4286 1.4758-0.73787 2.1642-0.71429 3.5715-0.71429 0.2381 0 0.4884-0.0753 0.7142 0 4.4337 1.4779-2.3739-0.0578 3.5715 1.4286 1.4285 0.35715 0-0.71428 2.1428 0 0.3195 0.10648 0.4341 0.52751 0.7143 0.71429 0.443 0.29532 0.9235 0.54593 1.4286 0.71429 0.403 0.13433 1.6735 0 2.1428 0h1.4286c0.4762 0 0.9768 0.15058 1.4286 0 0.3194-0.10648 0.4762-0.4762 0.7143-0.71429 0.4762-0.47619 0.9524-0.95238 1.4285-1.4286 0.7143-0.71429 1.5368-1.3347 2.1429-2.1429 0.6389-0.85183 0.8379-1.9712 1.4286-2.8571 0.1867-0.28017 0.5637-0.41312 0.7143-0.71429 0.3367-0.67343 0.2966-1.5164 0.7142-2.1428 0.1321-0.19811 0.6078 0.21295 0.7143 0 0.213-0.42592 0-0.95239 0-1.4286 0-0.71428 0.3195-1.504 0-2.1428-0.4632-0.92644-2.8726-2.4689-3.5714-2.8572-1.3962-0.77566-2.9313-1.2963-4.2857-2.1428-0.5711-0.35692-0.8132-1.1551-1.4286-1.4286-3.8287-1.7017-5.6347-1.4286-9.2857-1.4286-1.1905 0-2.4229-0.31323-3.5714 0-2.86 0.77999-4.1358 2.1958-6.4286 3.5714-0.4565 0.27392-1.1464 0.26282-1.4286 0.71429-9.1652-0.17346-1.2331 3.8948-2.1428 5.7143-0.1506 0.30117-0.5275 0.43412-0.7143 0.71429-0.2953 0.44298-0.4404 0.97204-0.7143 1.4286-1.0062 1.677-1.4898 1.9387-2.1429 3.5714-0.7457 1.8644-1.0101 4.0153-2.1428 5.7143-1.8107 2.716 0.5224-3.5359-2.1429 3.5714-0.2381 0.95238-0.4762 1.9048-0.7143 2.8572-0.2381 0.23809-0.5637 0.41311-0.7142 0.71428-0.213 0.42592 0.3367 1.0919 0 1.4286-0.3765 0.37647-1.0522 0.33783-1.4286 0.71429-0.4762 0.71429-0.9524 1.4286-1.4286 2.1429 0 0.23809 0.1065 0.50132 0 0.71428-0.1506 0.30117-0.5275 0.43412-0.7143 0.71429-0.2953 0.44298-0.4403 0.97204-0.7143 1.4286-1.5405 2.5676-2.0047 2.3049-2.8571 5.7143-0.1732 0.69295 0 1.4286 0 2.1428 0 2.0382-0.1318 3.7401 0.7143 5.7143 0.3381 0.78905 1.0904 1.3538 1.4286 2.1429 0.3867 0.90231 0.2092 2.0153 0.7142 2.8571 0.274 0.45652 0.9856 0.41896 1.4286 0.71428 0.9905 0.66036 2.0154 1.3011 2.8572 2.1429 0.1683 0.16836-0.1684 0.54593 0 0.71429 0.1683 0.16836 0.4761 0 0.7142 0h0.7143c0.4371 0 5.2435 0.1345 5.7143 0 1.2329-0.35225 2.381-0.95238-1.4286-5.7143z"/>
        <path id="path4065" d="m-1607.1 885.22c-0.495-2.0759 1.5413-3.1954 2.1429-5 0.075-0.22588 0-0.4762 0-0.71429 0.9524-1.9048 1.7615-3.8882 2.8571-5.7143 0.3506-0.5842 2.5605-2.2638 2.8572-2.8571 0.2129-0.42592-0.3367-1.0918 0-1.4286 0.1683-0.16836 0.4833 0.0577 0.7143 0 0.7304-0.18261 1.4285-0.47619 2.1428-0.71429 0.1891-0.063 2.8321-1.084 3.5715-0.71428 3.3539 1.677 0.8986 1.0737 3.5714 2.1429 0.6991 0.27962 1.5044 0.31523 2.1428 0.71428 0.3608 0.22548 4.4883 3.7953 5.7143 4.2857 1.0895 0.43577 1.9771-0.27425 2.8572-0.71429 0.4762-0.2381 1.0026-0.39485 1.4285-0.71429 5.1379-3.8534-1.5074 0.79313 2.1429-2.8571 0.3765-0.37646 1.1332-0.2713 1.4286-0.71428 0.2641-0.39622-0.078-0.95886 0-1.4286 0.3227-1.9367 0.9524-3.8095 1.4285-5.7143 0.4364-1.7452 1.0886-3.843 0.7143-5.7143-0.4521-2.2606-3.2032-3.1958-4.2857-5-0.245-0.40833 0-0.95238 0-1.4286-1.1905-0.71428-2.4755-1.2905-3.5714-2.1429-1.0632-0.82689-1.8225-1.9949-2.8572-2.8571-0.409-0.34083-1.0128-0.3817-1.4285-0.71428-2.6424-2.1139-1.209-2.2418-4.2857-2.8572-0.467-0.0934-0.963-0.0998-1.4286 0-2.8797 0.61708-5.8193 1.0944-8.5714 2.1429-2.2908 0.87267-4.2703 2.4092-6.4286 3.5714-2.5114 1.3523-3.2894 1.1766-5 3.5714-0.6189 0.86646-0.8379 1.9712-1.4286 2.8571-0.3735 0.56033-1.1274 0.82623-1.4286 1.4286-0.2129 0.42592 0 0.95238 0 1.4286v5.7143c0 2.4103 0.1155 0.9666-0.7142 4.2857-0.2381 0.95238-0.4039 1.9258-0.7143 2.8572-4.5877 13.763 1.7429-7.6861-2.1429 7.8571-0.1291 0.5165-0.6099 0.90651-0.7143 1.4286-0.1401 0.70041 0.1175 1.4383 0 2.1429-0.1238 0.74268-0.5316 1.4124-0.7143 2.1428-0.073 0.29388-0.092 4.6303 0 5 0.1292 0.5165 0.6099 0.90652 0.7143 1.4286 0.1876 0.93763 0 3.1501 0 4.2857v0.71429c0 0.23809-0.1065 0.50132 0 0.71428 0.6209 1.2418 1.4286 2.381 9.2857-10.714z"/>
        <path id="path4067" d="m-1580.7 678.08h2.8572c0.2381 0 0.5459 0.16836 0.7142 0 0.1684-0.16836-0.1981-0.58222 0-0.71429 0.6265-0.41764 1.5164-0.29664 2.1429-0.71428 0.3962-0.26415-0.2641-1.0324 0-1.4286 0.3736-0.56034 1.055-0.86824 1.4286-1.4286 0.132-0.1981 0-0.47619 0-0.71428 0-0.47619-0.1155-0.9666 0-1.4286 0.1291-0.5165 0.9524-0.95238 0.7143-1.4286-0.213-0.42592-0.9524 0-1.4286 0s-1.0567-0.29748-1.4286 0c-0.9296 0.74368-1.3681 1.9533-2.1428 2.8571-2.2056 2.5732-2.5397 2.381-2.8572 5z"/>
      </g>
      <path id="path3785" stroke="#d3d1d7" stroke-width="1px" fill="#d8d6dc" d="m-1572 643.22s-7.0674 0.66325-10.036 6.147c-2.9681 5.4837 2.2848 12.477 2.2848 12.477l-8.9488 27.992-12.084 4.172-4.4115 64.679s-29.492 123.21-44.876 162.1c-15.384 38.885-39.699 73.141-39.699 73.141l65.122 47.818 15.513-0.1258 1.4109-14.808c-24.348-1.6693-44-20.486-44.228-43.626-0.2403-24.407 20.804-44.414 47.024-44.672 1.73-0.017 3.571 0.0787 5.251 0.22685l3.257-34.409c-6.4509-0.20614-11.702-3.514-11.947-7.6769l-0.031-0.003-0.017-0.15841c0-0.0316 0.01-0.0616 0.01-0.0934 0-0.13437 0.025-0.27206 0.037-0.40458l0.01-0.43851 0.9505-26.649c-0.1596-0.75349-0.2494-1.5496-0.2573-2.3455-0.069-6.9733 5.9599-12.662 13.491-12.736 0.801-0.008 1.823 0.0582 2.5888 0.17284l3.0872-33.922v-0.0311l0.065-0.71579-17.537-13.144 12.064-31.191 9.0904-0.58477 0.5036-0.0169 3.8039-40.76c-5.3297-0.37598-9.5961-4.7324-9.6495-10.166-0.056-5.7181 4.5842-10.397 10.302-10.453 0.4539-0.004 0.8812 0.007 1.3129 0.0567l3.1298-33.354c-1.3131-0.41722-2.3151-1.7446-2.331-3.35-0.019-1.8909 1.3219-3.4132 2.9881-3.5249v-0.0311l2.7552-29.591zm-16.5 176.83 0.9846-0.47522v-0.0311l-0.9875 0.50634zm0.9846-0.47522-3.339 34.621c0.7737 0.0293 1.5429 0.11843 2.3285 0.27467 7.3869 1.4693 12.387 8.1904 11.027 15.03-0.1553 0.78057-0.4113 1.5468-0.7075 2.2577l-3.9974 26.34-0.04 0.4357c-0.012 0.13233-0.011 0.27283-0.037 0.40458 0 0.0314-0.026 0.0597-0.039 0.0906l-0.014 0.15561-0.031-0.003c-1.0123 4.0454-6.7848 6.3226-13.162 5.329l-3.1943 34.415c1.6783 0.16592 3.5032 0.4495 5.2001 0.78703 25.717 5.1152 42.682 28.652 37.921 52.591-4.5143 22.697-27.309 37.564-51.544 34.69l-1.379 14.811 15.23 2.9863 72.87-34.914s-17.548-38.163-25.455-79.227-14.025-167.59-14.025-167.59l7.651-64.415-11.13-6.316-3.5902-29.164s6.4617-5.9151 4.5618-11.854c-1.9-5.939-8.7247-7.9171-8.7247-7.9171l-2.7552 29.591v0.0311c1.6164 0.41872 2.6065 2.1772 2.2375 4.0319-0.3131 1.5747-1.5297 2.7077-2.8975 2.8742l-3.0951 33.325c-0.035-0.002-0.063 0.0235-0.096 0.0225 0.4657 0.0289 0.918 0.0949 1.3948 0.1897 5.6085 1.1156 9.2967 6.558 8.181 12.167-1.06 5.3299-6.0475 8.8422-11.354 8.2235l-3.8039 40.76 0.4923 0.10756 8.8016 2.2444 6.0767 32.874-19.557 9.7364zm12.918-146.78c0.2254-0.002 0.4349 0.0386 0.6507 0.0906-0.218-0.0509-0.4189-0.0928-0.6507-0.0906zm0.5489 0.17547c-0.2212-0.0439-0.4349-0.0393-0.6565-0.0284 0.2238-0.0102 0.4292-0.0171 0.6565 0.0284z"/>
      <g id="g3910" transform="matrix(1.312 0 0 1.312 -593.67 536.53)">
        <path id="path3912" stroke-linejoin="round" d="m-517.14 244.86c0 8.087-7.835 14.643-17.5 14.643s-17.5-6.5558-17.5-14.643c0-8.087 7.835-14.643 17.5-14.643s17.5 6.5558 17.5 14.643z" transform="translate(-5 2)" stroke="#e6e6e6" stroke-linecap="square" stroke-width=".2" fill="#b6adb2"/>
        <path id="path3914" stroke-linejoin="round" d="m-517.14 244.86c0 8.087-7.835 14.643-17.5 14.643s-17.5-6.5558-17.5-14.643c0-8.087 7.835-14.643 17.5-14.643s17.5 6.5558 17.5 14.643z" transform="translate(-5 -1.4286)" stroke="#e6e6e6" stroke-linecap="square" stroke-width=".2" fill="#fff"/>
        <path id="path3916" transform="matrix(1 -.039977 -.080307 1.0032 21.359 -19.921)" fill="url(#radialGradient4584)" d="m-537.5 248.08-4.6862-3.4802-4.749 3.3939 0.67085-5.7984-5.3137-2.4158 5.357-2.3182-0.56467-5.8097 4.6862 3.4802 4.749-3.3939-0.67086 5.7984 5.3137 2.4158-5.357 2.3182 0.56466 5.8097z"/>
        <path id="path3918" d="m-537.5 248.08-4.6686-5.4017-4.7666 5.3154 2.3437-6.744-6.9866-1.4703 7.0123-1.3422-2.22-6.7857 4.6686 5.4017 4.7666-5.3154-2.3437 6.744 6.9866 1.4703-7.0123 1.3423 2.22 6.7857z" fill="#f2f0f1" transform="matrix(.70916 -.028350 -.056951 .71144 -142.31 58.162)"/>
      </g>
      <g id="g3922" transform="matrix(.93546 0 0 .93546 -833.14 421.22)">
        <path id="path3924" stroke-linejoin="round" d="m-517.14 244.86c0 8.087-7.835 14.643-17.5 14.643s-17.5-6.5558-17.5-14.643c0-8.087 7.835-14.643 17.5-14.643s17.5 6.5558 17.5 14.643z" transform="translate(-5 2)" stroke="#e6e6e6" stroke-linecap="square" stroke-width=".2" fill="#b6adb2"/>
        <path id="path3926" stroke-linejoin="round" d="m-517.14 244.86c0 8.087-7.835 14.643-17.5 14.643s-17.5-6.5558-17.5-14.643c0-8.087 7.835-14.643 17.5-14.643s17.5 6.5558 17.5 14.643z" transform="translate(-5 -1.4286)" stroke="#e6e6e6" stroke-linecap="square" stroke-width=".2" fill="#fff"/>
        <path id="path3928" transform="matrix(1 -.039977 -.080307 1.0032 21.359 -19.921)" fill="url(#radialGradient4584)" d="m-537.5 248.08-4.6862-3.4802-4.749 3.3939 0.67085-5.7984-5.3137-2.4158 5.357-2.3182-0.56467-5.8097 4.6862 3.4802 4.749-3.3939-0.67086 5.7984 5.3137 2.4158-5.357 2.3182 0.56466 5.8097z"/>
        <path id="path3930" d="m-537.5 248.08-4.6686-5.4017-4.7666 5.3154 2.3437-6.744-6.9866-1.4703 7.0123-1.3422-2.22-6.7857 4.6686 5.4017 4.7666-5.3154-2.3437 6.744 6.9866 1.4703-7.0123 1.3423 2.22 6.7857z" fill="#f2f0f1" transform="matrix(.70916 -.028350 -.056951 .71144 -142.31 58.162)"/>
      </g>
      <g id="g3934" transform="matrix(.91376 0 0 .91376 -1750.9 462.43)">
        <path id="path3936" stroke-linejoin="round" d="m-517.14 244.86c0 8.087-7.835 14.643-17.5 14.643s-17.5-6.5558-17.5-14.643c0-8.087 7.835-14.643 17.5-14.643s17.5 6.5558 17.5 14.643z" transform="translate(-5 2)" stroke="#e6e6e6" stroke-linecap="square" stroke-width=".2" fill="#b6adb2"/>
        <path id="path3938" stroke-linejoin="round" d="m-517.14 244.86c0 8.087-7.835 14.643-17.5 14.643s-17.5-6.5558-17.5-14.643c0-8.087 7.835-14.643 17.5-14.643s17.5 6.5558 17.5 14.643z" transform="translate(-5 -1.4286)" stroke="#e6e6e6" stroke-linecap="square" stroke-width=".2" fill="#fff"/>
        <path id="path3940" d="m-537.5 248.08-4.6862-3.4802-4.749 3.3939 0.67085-5.7984-5.3137-2.4158 5.357-2.3182-0.56467-5.8097 4.6862 3.4802 4.749-3.3939-0.67086 5.7984 5.3137 2.4158-5.357 2.3182 0.56466 5.8097z" fill="url(#radialGradient4584)" transform="matrix(1 -.039977 -.080307 1.0032 21.359 -19.921)"/>
        <path id="path3942" transform="matrix(.70916 -.028350 -.056951 .71144 -142.31 58.162)" fill="#f2f0f1" d="m-537.5 248.08-4.6686-5.4017-4.7666 5.3154 2.3437-6.744-6.9866-1.4703 7.0123-1.3422-2.22-6.7857 4.6686 5.4017 4.7666-5.3154-2.3437 6.744 6.9866 1.4703-7.0123 1.3423 2.22 6.7857z"/>
      </g>
      <path id="path3954" d="m-1862.5 995.93 108.93-12.5 3.2143 13.571-110.71 16.429-1.4286-17.5z" fill="#fff" fill-opacity=".45161"/>
      <path id="path3967" filter="url(#filter4053)" fill="#aaa4a4" d="m-1424.3 555.37c-6.2996-16.691-16.316-24.451-24.244-42.341-3.104-15.898-11.541-21.292-22.223-34.43-5.2547-9.0099-7.7231-13.406-20.203-24.244-12.21-15.955-19.369-26.801-34.345-38.386-14.511-7.4556-28.729-16.158-36.366-26.264-18.133-14.282-36.963-16.815-58.589-26.264-21.898-5.5331-45.544-3.7523-68.69-4.0406-22.725-1.4615-39.814-15.139-64.089-12.271-19.366 3.7247-34.04 16.224-32.885 32.304 0.2983 19.236 5.6798 26.337 18.183 40.576 15.47 11.145 33.305 11.925 51.082 20.49 22.283 8.8044 43.148 20.606 65.563 31.548 22.272 7.2296 26.829 36.207 42.96 53.018 5.7753 28.56 25.686 51.017 34.345 78.792 10.065 18.065 12.771 44.474 26.264 56.569 7.7573 12.433 34.969 3.6951 50.508 4.0406 15.826-3.891 40.981-10.677 36.366-31.985 1.4404-10.121-2.832-25.955 2.0203-32.665 3.3028-12.278 17.566-15.615 28.284-26.264 3.3105-5.55 4.9768-11.875 6.0609-18.183z"/>
      <path id="path3969" filter="url(#filter4057)" fill="#aaa4a4" d="m-1745.5 789.72c-5.7935 3.9586-20.479 1.2519-30.305 2.0203-26.96-16.669-61.948-21.28-82.832-42.426-17.3-3.7296-23.998-20.283-46.473-18.071-30.768-0.43596-48.982-15.956-72.725-32.436-17.648-13.142-21.736-30.432-22.223-52.188v-95.294c-9.2646-11.904-21.171-20.604-38.386-26.264-25.985-2.4833-57.071-17.392-70.711 12.122-10.118 18.909-21.779 33.696-28.284 46.467-8.5419 7.2247-10.631 28.343-20.203 32.325-3.2921 11.632-17.742 24.835-20.314 40.008 0.2632 22.354 0.018 44.718 0.1108 67.068 4.3523 7.7695 0.044 24.2 6.0609 30.305 7.8804 9.637 14.807 25.312 28.284 34.345 10.582 11.563 25.755 20.513 30.305 28.284 13.11 3.1697 27.694 15.584 40.406 22.223 17.283 4.4151 28.862 17.788 44.447 26.264 14.174 8.5018 26.567 12.666 43.681 22.02 8.3182 9.1586 33.973 28.098 51.273 38.589 12.595 14.959 27.826 15.317 48.487 20.203 16.62-0.74234 31.153 1.5521 46.913 4.378 15.6 3.4098 32.049 0.9282 48.042 1.683 14.509-4.0245 45.929-10.365 68.69-20.203 17.465-4.1102 24.321-18.78 34.345-32.325 10.671-13.139 2.6609-33.512 8.2169-48.253-0.8871-11.578 1.5587-26.065-2.156-34.579-4.973-14.756-27.71-18.163-44.447-22.223-7.0241 0.82851-12.514-6.454-20.203-4.0406z"/>
      <path id="path4089" fill="#313237" d="m-1733.4 189.69-651.63 388 757.18 841.38 674.86-475.6-780.42-753.77zm-62.781 109.19c5.2714-0.0613 10.42-0.0221 15.344 0.1875 40.104 1.7073 74.712 11.668 99.625 11.094 24.912-0.57427 26.51-12.168 46.781-8.5938 20.618 3.6358 54.656 46.094 54.656 46.094l118.94 120.72c7.4616 13.724 34.745 46.902 41.625 65.594 6.5487 17.792 15.229 72.033 39.094 85.094 40.021 19.153 52.916-1.7869 68.188 2.5 15.271 4.2869 232.5 221.09 232.5 221.09l-9.625 155-171.78 120.72s-42.872-24.131-74.281-2.875c-31.164 21.091-14.312 71.438-14.312 71.438l-171.41 118.56-197.16-15.719-221.44-250s14.744-52.353 7.1563-74.281c-7.588-21.929-165.72-92.844-165.72-92.844s-160.83-170.99-162.84-177.34c-2.0633-6.5178 10.786-30.655 3.2187-35.531-7.5675-4.8761-25.158 15.189-32.5 7.875-7.3424-7.3142 8.5703-126.22 36.781-154.28 28.712-28.563 326.78-199.31 326.78-199.31l51.438-8.5625s42.038-6.1957 78.938-6.625z"/>
      <path id="path4356" d="m-1642.5 1402.9 30.305 5.0507-15.657 12.122-14.647-17.173z" fill="#808080"/>
      <g id="g4296">
        <path id="path4152" stroke-linejoin="round" d="m-517.14 244.86c0 8.087-7.835 14.643-17.5 14.643s-17.5-6.5558-17.5-14.643c0-8.087 7.835-14.643 17.5-14.643s17.5 6.5558 17.5 14.643z" transform="matrix(.91376 0 0 .91376 -1845.3 364.11)" stroke="#e6e6e6" stroke-linecap="square" stroke-width=".2" fill="#b6adb2"/>
        <path id="path4154" transform="matrix(1.201 0 0 .81910 648.25 13.832)" fill="#808080" d="m-2473.9 699.82c0 4.9064-3.9774 8.8839-8.8839 8.8839s-8.8839-3.9775-8.8839-8.8839c0-4.9065 3.9774-8.8839 8.8839-8.8839s8.8839 3.9775 8.8839 8.8839z"/>
        <path id="path4156" stroke-linejoin="round" d="m-517.14 244.86c0 8.087-7.835 14.643-17.5 14.643s-17.5-6.5558-17.5-14.643c0-8.087 7.835-14.643 17.5-14.643s17.5 6.5558 17.5 14.643z" transform="matrix(.91376 0 0 .91376 -1845.3 360.98)" stroke="#e6e6e6" stroke-linecap="square" stroke-width=".2" fill="#fff"/>
        <path id="path4158" transform="matrix(.98492 0 0 .63414 111.99 144.04)" fill="#f2f0f1" d="m-2473.9 699.82c0 4.9064-3.9774 8.8839-8.8839 8.8839s-8.8839-3.9775-8.8839-8.8839c0-4.9065 3.9774-8.8839 8.8839-8.8839s8.8839 3.9775 8.8839 8.8839z"/>
        <path id="path4160" transform="matrix(1.201 0 0 1.0905 648.25 -178.48)" fill="#808080" d="m-2473.9 699.82c0 4.9064-3.9774 8.8839-8.8839 8.8839s-8.8839-3.9775-8.8839-8.8839c0-4.9065 3.9774-8.8839 8.8839-8.8839s8.8839 3.9775 8.8839 8.8839z"/>
        <path id="path4162" transform="matrix(.98492 0 0 .84422 111.99 -5.135)" fill="#f2f0f1" d="m-2473.9 699.82c0 4.9064-3.9774 8.8839-8.8839 8.8839s-8.8839-3.9775-8.8839-8.8839c0-4.9065 3.9774-8.8839 8.8839-8.8839s8.8839 3.9775 8.8839 8.8839z"/>
      </g>
      <g id="g4288" transform="translate(-684.88 135.36)">
        <path id="path4164" stroke-linejoin="round" d="m-517.14 244.86c0 8.087-7.835 14.643-17.5 14.643s-17.5-6.5558-17.5-14.643c0-8.087 7.835-14.643 17.5-14.643s17.5 6.5558 17.5 14.643z" transform="matrix(.91376 0 0 .91376 -568.2 -130.17)" stroke="#e6e6e6" stroke-linecap="square" stroke-width=".2" fill="#b6adb2"/>
        <path id="path4166" transform="matrix(1.201 0 0 .81910 1925.4 -480.45)" fill="#808080" d="m-2473.9 699.82c0 4.9064-3.9774 8.8839-8.8839 8.8839s-8.8839-3.9775-8.8839-8.8839c0-4.9065 3.9774-8.8839 8.8839-8.8839s8.8839 3.9775 8.8839 8.8839z"/>
        <path id="path4168" stroke-linejoin="round" d="m-517.14 244.86c0 8.087-7.835 14.643-17.5 14.643s-17.5-6.5558-17.5-14.643c0-8.087 7.835-14.643 17.5-14.643s17.5 6.5558 17.5 14.643z" transform="matrix(.91376 0 0 .91376 -568.2 -133.31)" stroke="#e6e6e6" stroke-linecap="square" stroke-width=".2" fill="#fff"/>
        <path id="path4170" transform="matrix(.98492 0 0 .63414 1389.1 -350.25)" fill="#f2f0f1" d="m-2473.9 699.82c0 4.9064-3.9774 8.8839-8.8839 8.8839s-8.8839-3.9775-8.8839-8.8839c0-4.9065 3.9774-8.8839 8.8839-8.8839s8.8839 3.9775 8.8839 8.8839z"/>
        <path id="path4172" transform="matrix(1.201 0 0 1.0905 1925.4 -672.76)" fill="#808080" d="m-2473.9 699.82c0 4.9064-3.9774 8.8839-8.8839 8.8839s-8.8839-3.9775-8.8839-8.8839c0-4.9065 3.9774-8.8839 8.8839-8.8839s8.8839 3.9775 8.8839 8.8839z"/>
        <path id="path4174" transform="matrix(.98492 0 0 .84422 1389.1 -499.42)" fill="#f2f0f1" d="m-2473.9 699.82c0 4.9064-3.9774 8.8839-8.8839 8.8839s-8.8839-3.9775-8.8839-8.8839c0-4.9065 3.9774-8.8839 8.8839-8.8839s8.8839 3.9775 8.8839 8.8839z"/>
      </g>
      <g id="g4338">
        <path id="path4176" stroke-linejoin="round" d="m-517.14 244.86c0 8.087-7.835 14.643-17.5 14.643s-17.5-6.5558-17.5-14.643c0-8.087 7.835-14.643 17.5-14.643s17.5 6.5558 17.5 14.643z" transform="matrix(.91376 0 0 .91376 -522.48 712.68)" stroke="#e6e6e6" stroke-linecap="square" stroke-width=".2" fill="#b6adb2"/>
        <path id="path4178" transform="matrix(1.201 0 0 .81910 1971.1 362.4)" fill="#808080" d="m-2473.9 699.82c0 4.9064-3.9774 8.8839-8.8839 8.8839s-8.8839-3.9775-8.8839-8.8839c0-4.9065 3.9774-8.8839 8.8839-8.8839s8.8839 3.9775 8.8839 8.8839z"/>
        <path id="path4180" stroke-linejoin="round" d="m-517.14 244.86c0 8.087-7.835 14.643-17.5 14.643s-17.5-6.5558-17.5-14.643c0-8.087 7.835-14.643 17.5-14.643s17.5 6.5558 17.5 14.643z" transform="matrix(.91376 0 0 .91376 -522.48 709.55)" stroke="#e6e6e6" stroke-linecap="square" stroke-width=".2" fill="#fff"/>
        <path id="path4182" transform="matrix(.98492 0 0 .63414 1434.8 492.61)" fill="#f2f0f1" d="m-2473.9 699.82c0 4.9064-3.9774 8.8839-8.8839 8.8839s-8.8839-3.9775-8.8839-8.8839c0-4.9065 3.9774-8.8839 8.8839-8.8839s8.8839 3.9775 8.8839 8.8839z"/>
        <path id="path4184" transform="matrix(1.201 0 0 1.0905 1971.1 170.09)" fill="#808080" d="m-2473.9 699.82c0 4.9064-3.9774 8.8839-8.8839 8.8839s-8.8839-3.9775-8.8839-8.8839c0-4.9065 3.9774-8.8839 8.8839-8.8839s8.8839 3.9775 8.8839 8.8839z"/>
        <path id="path4186" transform="matrix(.98492 0 0 .84422 1434.8 343.44)" fill="#f2f0f1" d="m-2473.9 699.82c0 4.9064-3.9774 8.8839-8.8839 8.8839s-8.8839-3.9775-8.8839-8.8839c0-4.9065 3.9774-8.8839 8.8839-8.8839s8.8839 3.9775 8.8839 8.8839z"/>
      </g>
      <path id="path4224" d="m-1718.6 1408.4-1.4014-41.718 64.041 69.928-1.1835 50.072-61.456-78.282z" fill="#fff"/>
      <path id="path4226" d="m-1718.8 1401.4 17.425-15.657-19.193-19.445 1.7677 35.103z" fill="#b3b3b3"/>
      <g id="g4330">
        <path id="path4188" stroke-linejoin="round" d="m-517.14 244.86c0 8.087-7.835 14.643-17.5 14.643s-17.5-6.5558-17.5-14.643c0-8.087 7.835-14.643 17.5-14.643s17.5 6.5558 17.5 14.643z" transform="matrix(.91376 0 0 .91376 -1128.2 1138.4)" stroke="#e6e6e6" stroke-linecap="square" stroke-width=".2" fill="#b6adb2"/>
        <path id="path4190" transform="matrix(1.201 0 0 .81910 1365.4 788.12)" fill="#808080" d="m-2473.9 699.82c0 4.9064-3.9774 8.8839-8.8839 8.8839s-8.8839-3.9775-8.8839-8.8839c0-4.9065 3.9774-8.8839 8.8839-8.8839s8.8839 3.9775 8.8839 8.8839z"/>
        <path id="path4192" stroke-linejoin="round" d="m-517.14 244.86c0 8.087-7.835 14.643-17.5 14.643s-17.5-6.5558-17.5-14.643c0-8.087 7.835-14.643 17.5-14.643s17.5 6.5558 17.5 14.643z" transform="matrix(.91376 0 0 .91376 -1128.2 1135.3)" stroke="#e6e6e6" stroke-linecap="square" stroke-width=".2" fill="#fff"/>
        <path id="path4194" transform="matrix(.98492 0 0 .63414 829.13 918.33)" fill="#f2f0f1" d="m-2473.9 699.82c0 4.9064-3.9774 8.8839-8.8839 8.8839s-8.8839-3.9775-8.8839-8.8839c0-4.9065 3.9774-8.8839 8.8839-8.8839s8.8839 3.9775 8.8839 8.8839z"/>
        <path id="path4196" transform="matrix(1.201 0 0 1.0905 1365.4 595.81)" fill="#808080" d="m-2473.9 699.82c0 4.9064-3.9774 8.8839-8.8839 8.8839s-8.8839-3.9775-8.8839-8.8839c0-4.9065 3.9774-8.8839 8.8839-8.8839s8.8839 3.9775 8.8839 8.8839z"/>
        <path id="path4198" transform="matrix(.98492 0 0 .84422 829.13 769.15)" fill="#f2f0f1" d="m-2473.9 699.82c0 4.9064-3.9774 8.8839-8.8839 8.8839s-8.8839-3.9775-8.8839-8.8839c0-4.9065 3.9774-8.8839 8.8839-8.8839s8.8839 3.9775 8.8839 8.8839z"/>
      </g>
      <g id="g4304">
        <path id="path4200" stroke-linejoin="round" d="m-517.14 244.86c0 8.087-7.835 14.643-17.5 14.643s-17.5-6.5558-17.5-14.643c0-8.087 7.835-14.643 17.5-14.643s17.5 6.5558 17.5 14.643z" transform="matrix(.91376 0 0 .91376 -1482.5 761.26)" stroke="#e6e6e6" stroke-linecap="square" stroke-width=".2" fill="#b6adb2"/>
        <path id="path4202" transform="matrix(1.201 0 0 .81910 1011.1 410.98)" fill="#808080" d="m-2473.9 699.82c0 4.9064-3.9774 8.8839-8.8839 8.8839s-8.8839-3.9775-8.8839-8.8839c0-4.9065 3.9774-8.8839 8.8839-8.8839s8.8839 3.9775 8.8839 8.8839z"/>
        <path id="path4204" stroke-linejoin="round" d="m-517.14 244.86c0 8.087-7.835 14.643-17.5 14.643s-17.5-6.5558-17.5-14.643c0-8.087 7.835-14.643 17.5-14.643s17.5 6.5558 17.5 14.643z" transform="matrix(.91376 0 0 .91376 -1482.5 758.12)" stroke="#e6e6e6" stroke-linecap="square" stroke-width=".2" fill="#fff"/>
        <path id="path4206" transform="matrix(.98492 0 0 .63414 474.85 541.18)" fill="#f2f0f1" d="m-2473.9 699.82c0 4.9064-3.9774 8.8839-8.8839 8.8839s-8.8839-3.9775-8.8839-8.8839c0-4.9065 3.9774-8.8839 8.8839-8.8839s8.8839 3.9775 8.8839 8.8839z"/>
        <path id="path4208" transform="matrix(1.201 0 0 1.0905 1011.1 218.66)" fill="#808080" d="m-2473.9 699.82c0 4.9064-3.9774 8.8839-8.8839 8.8839s-8.8839-3.9775-8.8839-8.8839c0-4.9065 3.9774-8.8839 8.8839-8.8839s8.8839 3.9775 8.8839 8.8839z"/>
        <path id="path4210" transform="matrix(.98492 0 0 .84422 474.85 392.01)" fill="#f2f0f1" d="m-2473.9 699.82c0 4.9064-3.9774 8.8839-8.8839 8.8839s-8.8839-3.9775-8.8839-8.8839c0-4.9065 3.9774-8.8839 8.8839-8.8839s8.8839 3.9775 8.8839 8.8839z"/>
      </g>
      <g id="g4346">
        <path id="path4212" stroke-linejoin="round" d="m-517.14 244.86c0 8.087-7.835 14.643-17.5 14.643s-17.5-6.5558-17.5-14.643c0-8.087 7.835-14.643 17.5-14.643s17.5 6.5558 17.5 14.643z" transform="matrix(.91376 0 0 .91376 -882.48 369.83)" stroke="#e6e6e6" stroke-linecap="square" stroke-width=".2" fill="#b6adb2"/>
        <path id="path4214" transform="matrix(1.201 0 0 .81910 1611.1 19.547)" fill="#808080" d="m-2473.9 699.82c0 4.9064-3.9774 8.8839-8.8839 8.8839s-8.8839-3.9775-8.8839-8.8839c0-4.9065 3.9774-8.8839 8.8839-8.8839s8.8839 3.9775 8.8839 8.8839z"/>
        <path id="path4216" stroke-linejoin="round" d="m-517.14 244.86c0 8.087-7.835 14.643-17.5 14.643s-17.5-6.5558-17.5-14.643c0-8.087 7.835-14.643 17.5-14.643s17.5 6.5558 17.5 14.643z" transform="matrix(.91376 0 0 .91376 -882.48 366.69)" stroke="#e6e6e6" stroke-linecap="square" stroke-width=".2" fill="#fff"/>
        <path id="path4218" transform="matrix(.98492 0 0 .63414 1074.8 149.75)" fill="#f2f0f1" d="m-2473.9 699.82c0 4.9064-3.9774 8.8839-8.8839 8.8839s-8.8839-3.9775-8.8839-8.8839c0-4.9065 3.9774-8.8839 8.8839-8.8839s8.8839 3.9775 8.8839 8.8839z"/>
        <path id="path4220" transform="matrix(1.201 0 0 1.0905 1611.1 -172.76)" fill="#808080" d="m-2473.9 699.82c0 4.9064-3.9774 8.8839-8.8839 8.8839s-8.8839-3.9775-8.8839-8.8839c0-4.9065 3.9774-8.8839 8.8839-8.8839s8.8839 3.9775 8.8839 8.8839z"/>
        <path id="path4222" transform="matrix(.98492 0 0 .84422 1074.8 .57930)" fill="#f2f0f1" d="m-2473.9 699.82c0 4.9064-3.9774 8.8839-8.8839 8.8839s-8.8839-3.9775-8.8839-8.8839c0-4.9065 3.9774-8.8839 8.8839-8.8839s8.8839 3.9775 8.8839 8.8839z"/>
      </g>
      <path id="path4266" stroke="#000" stroke-width="1px" fill="#333" d="m-1472.8 1366.5 116.42-82.327-4.0079 42.005-116.43 85.552 4.0181-45.23z"/>
      <path id="path4270" stroke="#000" stroke-width="1px" d="m-1494.5 1396.3 3.5714-42.054 17.894 11.497-4.3904 45.717-17.075-15.16z"/>
      <path id="path4278" d="m-1426.4 1320.2 22.143 13.571" stroke="#a80" stroke-linecap="round" stroke-width="12" fill="#d4aa00"/>
      <path id="path4274" stroke="#000" stroke-width="1px" fill="#676266" d="m-1356.4 1285.2-3.5714 41.429-32.857-20.357 18.928-32.5 17.5 11.428z"/>
      <path id="path4280" d="m-1450.7 1337.4 22.143 13.571" stroke="#a80" stroke-linecap="round" stroke-width="12" fill="#d4aa00"/>
      <path id="path4276" d="m-1402.1 1303.1 22.143 13.571" stroke="#a80" stroke-linecap="round" stroke-width="12" fill="#d4aa00"/>
      <path id="path4282" d="m-1475 1354.9 22.143 13.571" stroke="#a80" stroke-linecap="round" stroke-width="12" fill="#d4aa00"/>
      <path id="path4272" stroke="#000" stroke-width="1px" d="m-1490.7 1353.6 116.5-80.628 17.267 10.704-116.17 81.822-17.598-11.898z"/>
      <path id="path4354" d="m-1641.3 1388.4 30.115 4.6088-15.657 12.122-14.458-16.731z" fill="#ccc"/>
      <path id="path4358" fill="#676266" d="m-1610.9 1393 4.5457 13.637-21.971 15.91v-18.688l17.425-10.859z"/>
      <path id="path4360" fill="#848081" d="m-1641.2 1388.5 13.89 14.9-1.389 22.476-24.622-28.284 12.122-9.0914z"/>
      <path id="path4364" d="m-2367.4 554.25-7.7018 24.208-13.943-12.6 21.644-11.608z" fill="#ccc"/>
      <path id="path4378" d="m-969.01 927.4 0.85427-11.287 8.0148 23.693-8.869-12.406z" fill="#808080"/>
      <path id="path4380" d="m-967.8 939.96-0.33408-24.341 18.159 14.114-17.824 10.226z" fill="#ccc"/>
      <path id="path4384" fill="#676266" d="m-968.25 939.85 18.32-10.34-2.9195 15.568-28.522 19.787 13.121-25.016z"/>
      <path id="path4392" d="m-1747.3 190.56 27.394 2.8571-13.881-11.886-13.513 9.0288z" fill="#ccc"/>
      <path id="path4398" fill="#313237" d="m-1746.7 190.05-23.06 22.371 18.688-11.112 29.8 3.0305 13.637 9.0914-13.724-21.805-25.34-1.5765z"/>
      <path id="path4404" d="m-2382.9 595.22-6.4286-29.643 14.286 12.857 13.571 28.214-21.428-11.429z" fill="#848081"/>
      <path id="path4406" fill="#999" d="m-2367.7 554.33 10.179 6.4286-5.5357 42.143-11.964-24.464 7.3214-24.107z"/>
      <path id="path4408" d="m-1747.1 189.94-19.446 18.94 58.336 4.0406-13.006-21.339-25.885-1.6415z" fill="#999"/>
    </g>
  </g>
  <metadata>
    <rdf:RDF>
      <cc:Work>
        <dc:format>image/svg+xml</dc:format>
        <dc:type rdf:resource="http://purl.org/dc/dcmitype/StillImage"/>
        <cc:license rdf:resource="http://creativecommons.org/licenses/publicdomain/"/>
        <dc:publisher>
          <cc:Agent rdf:about="http://openclipart.org/">
            <dc:title>Openclipart</dc:title>
          </cc:Agent>
        </dc:publisher>
        <dc:title>Hard disk Harddisk HDD</dc:title>
        <dc:date>2009-12-15T19:53:13</dc:date>
        <dc:description>Hard Disk</dc:description>
        <dc:source>http://openclipart.org/detail/28678/hard-disk-harddisk-hdd-by-sagar_ns</dc:source>
        <dc:creator>
          <cc:Agent>
            <dc:title>sagar_ns</dc:title>
          </cc:Agent>
        </dc:creator>
        <dc:subject>
          <rdf:Bag>
            <rdf:li>clip art</rdf:li>
            <rdf:li>clipart</rdf:li>
            <rdf:li>colour</rdf:li>
            <rdf:li>computer</rdf:li>
            <rdf:li>data</rdf:li>
            <rdf:li>disk</rdf:li>
            <rdf:li>harddisk</rdf:li>
            <rdf:li>hdd</rdf:li>
            <rdf:li>image</rdf:li>
            <rdf:li>media</rdf:li>
            <rdf:li>office</rdf:li>
            <rdf:li>png</rdf:li>
            <rdf:li>public domain</rdf:li>
            <rdf:li>storage</rdf:li>
            <rdf:li>svg</rdf:li>
            <rdf:li>technology</rdf:li>
            <rdf:li>unchecked</rdf:li>
          </rdf:Bag>
        </dc:subject>
      </cc:Work>
      <cc:License rdf:about="http://creativecommons.org/licenses/publicdomain/">
        <cc:permits rdf:resource="http://creativecommons.org/ns#Reproduction"/>
        <cc:permits rdf:resource="http://creativecommons.org/ns#Distribution"/>
        <cc:permits rdf:resource="http://creativecommons.org/ns#DerivativeWorks"/>
      </cc:License>
    </rdf:RDF>
  </metadata>
</svg>
